<svg width="30" height="23" viewBox="0 0 30 23" fill="none" xmlns="http://www.w3.org/2000/svg">
<path d="M6.4209 7.86218H15.0525H23.6841L19.3946 12.8108L15.0788 17.7593L10.763 12.8108L6.4209 7.86218Z" stroke="#FCF6E9" stroke-miterlimit="10"/>
<path d="M17.868 7.73527C17.8417 7.45612 17.7891 7.20234 17.6575 6.94857C17.3943 6.39027 17.0259 5.88272 16.6838 5.37518C15.9733 4.33471 15.368 3.26886 15.0785 2C15.0522 2.07613 15.0522 2.07613 15.0522 2.10151C14.8154 3.1166 14.368 4.03018 13.7891 4.89301C13.3943 5.50206 12.9996 6.08574 12.6312 6.72017C12.4206 7.05008 12.3154 7.40536 12.2891 7.73527H17.868V7.73527Z" stroke="#FCF6E9" stroke-miterlimit="10"/>
<path d="M15.0263 7.96357L8.02632 12.8106L1 17.6577L2.57895 12.633L3.39474 10.0445C3.84211 8.62338 5.23684 7.65904 6.78947 7.7098L9.60526 7.78593L15.0263 7.96357Z" stroke="#FCF6E9" stroke-miterlimit="10"/>
<path d="M15.0791 7.78596L22.0791 12.633L29.0791 17.4801L27.5002 12.4554L26.6844 9.86689C26.237 8.44577 24.8423 7.48143 23.2896 7.53219L20.4738 7.60832L15.0791 7.78596Z" stroke="#FCF6E9" stroke-miterlimit="10"/>
<path d="M18.9215 22.1748H15.053H11.2109L13.132 19.967L15.053 17.7592L17.0004 19.967L18.9215 22.1748Z" stroke="#FCF6E9" stroke-miterlimit="10"/>
</svg>
