<svg width="30" height="23" viewBox="0 0 30 23" fill="none" xmlns="http://www.w3.org/2000/svg">
<path d="M6.36816 7.86218H14.9997H23.6313L19.3418 12.8108L15.0261 17.7593L10.7103 12.8108L6.36816 7.86218Z" stroke="#0A2F2F" stroke-miterlimit="10"/>
<path d="M17.8153 7.73527C17.789 7.45612 17.7363 7.20234 17.6048 6.94857C17.3416 6.39027 16.9732 5.88272 16.6311 5.37518C15.9205 4.33471 15.3153 3.26886 15.0258 2C14.9995 2.07613 14.9995 2.07613 14.9995 2.10151C14.7626 3.1166 14.3153 4.03018 13.7363 4.89301C13.3416 5.50206 12.9469 6.08574 12.5784 6.72017C12.3679 7.05008 12.2626 7.40536 12.2363 7.73527H17.8153V7.73527Z" stroke="#0A2F2F" stroke-miterlimit="10"/>
<path d="M14.9736 7.96357L7.97358 12.8106L0.947266 17.6577L2.52621 12.633L3.342 10.0445C3.78937 8.62338 5.18411 7.65904 6.73674 7.7098L9.55253 7.78593L14.9736 7.96357Z" stroke="#0A2F2F" stroke-miterlimit="10"/>
<path d="M15.0264 7.78596L22.0264 12.633L29.0264 17.4801L27.4474 12.4554L26.6316 9.86689C26.1843 8.44577 24.7895 7.48143 23.2369 7.53219L20.4211 7.60832L15.0264 7.78596Z" stroke="#0A2F2F" stroke-miterlimit="10"/>
<path d="M18.8687 22.1748H15.0003H11.1582L13.0793 19.967L15.0003 17.7592L16.9477 19.967L18.8687 22.1748Z" stroke="#0A2F2F" stroke-miterlimit="10"/>
</svg>
