<svg width="26" height="25" viewBox="0 0 26 25" fill="none" xmlns="http://www.w3.org/2000/svg">
<path d="M23.9117 14.9182C22.5667 13.7757 21.087 12.861 19.3328 12.427C18.6891 12.2676 18.0453 12.1992 17.3969 12.2232C17.7358 13.2779 17.6232 14.3464 17.0135 15.4C16.4155 16.4343 15.7506 17.4332 15.0964 18.4356C15.0553 18.4982 15.0155 18.5609 14.9756 18.6235C14.9873 18.7488 14.999 18.8741 15.0084 19.0006C15.019 19.1452 15.0717 19.2147 15.2136 19.2626C16.6875 19.7649 18.172 19.8275 19.6717 19.3844C21.4082 18.873 22.8681 17.915 24.1931 16.7395C24.4721 16.4924 24.7453 16.2383 25.0455 15.9661C24.6339 15.5845 24.2857 15.236 23.9117 14.9182Z" stroke="#0A2F2F" stroke-width="0.75" stroke-miterlimit="10"/>
<path d="M8.79517 14.9076C8.36836 14.0442 8.32263 13.0953 8.56769 12.2137C7.74925 12.1852 6.93901 12.3048 6.13581 12.5623C4.13777 13.2036 2.50791 14.3836 1.07387 15.8473C1.04807 15.8747 1.02814 15.9077 1 15.9453C1.03283 15.9863 1.05863 16.0239 1.09029 16.0569C2.31209 17.3099 3.69923 18.343 5.33729 19.0344C7.09496 19.7771 8.88311 19.8933 10.7076 19.2736C10.8741 19.2167 10.9656 19.1563 10.975 18.9615C10.982 18.7986 10.9972 18.6346 11.0148 18.4717C10.8167 18.1562 10.6115 17.8441 10.4004 17.5343C9.82116 16.6845 9.2466 15.8211 8.79517 14.9076Z" stroke="#0A2F2F" stroke-width="0.75" stroke-miterlimit="10"/>
<path d="M17.0468 11.6926C17.1518 11.8849 17.2437 12.0772 17.3239 12.2696C17.7874 12.2212 18.2533 12.2175 18.7239 12.2559C19.7181 12.3378 20.6628 12.6232 21.5827 13.0315C21.6204 12.9831 21.6535 12.9483 21.6782 12.9062C21.8304 12.6505 21.9955 12.4023 22.1299 12.1368C23.1501 10.1104 23.4603 7.92641 23.4249 5.66548C23.4213 5.4719 23.314 5.48058 23.1902 5.47686C22.0863 5.44584 20.9918 5.54139 19.9127 5.78213C18.3889 6.12089 16.9678 6.7066 15.7754 7.79859C15.2117 8.31481 14.7588 8.90672 14.3896 9.55944C15.4888 9.89572 16.463 10.6254 17.0468 11.6926Z" stroke="#0A2F2F" stroke-width="0.75" stroke-miterlimit="10"/>
<path d="M11.5052 9.57923C11.5462 9.56558 11.5871 9.55441 11.628 9.542C10.9824 8.40408 10.097 7.47711 8.91209 6.81197C7.28274 5.89865 5.52474 5.55119 3.70474 5.47798C3.3749 5.46433 3.04505 5.47549 2.67661 5.47549C2.63684 8.19064 3.01347 10.7494 4.47789 13.0315C4.56912 12.9967 4.63579 12.9756 4.70013 12.9471C5.66627 12.5239 6.6675 12.2671 7.71435 12.2323C8.05823 12.2212 8.40094 12.2323 8.74015 12.2671C9.23725 11.0336 10.2256 10.0011 11.5052 9.57923Z" stroke="#0A2F2F" stroke-width="0.75" stroke-miterlimit="10"/>
<path d="M13.7021 9.53582C14.4121 8.5245 15.335 7.69427 16.5003 7.06789C16.8614 6.87314 16.8602 6.87201 16.7549 6.48593C16.7488 6.46315 16.7427 6.44151 16.7353 6.41873C16.0939 4.26741 14.7365 2.54431 13.0167 1.03758C13.0007 1.02392 12.9726 1.02392 12.8881 1C12.3618 1.55349 11.7926 2.10129 11.2858 2.69577C10.2736 3.88134 9.49995 5.18648 9.13274 6.67953C9.09479 6.83442 9.1205 6.90503 9.27473 6.98475C10.5073 7.61454 11.4854 8.4687 12.2296 9.5267C12.7204 9.46407 13.2174 9.46862 13.7021 9.53582Z" stroke="#0A2F2F" stroke-width="0.75" stroke-miterlimit="10"/>
<path d="M16.7982 11.6239C15.7781 9.90275 13.5045 9.18173 11.5416 9.77404C9.2059 10.4791 7.88091 13.1308 8.92214 15.2404C9.35247 16.1118 9.90123 16.9353 10.4523 17.7452C11.571 19.3877 12.5324 21.0917 12.9745 23.0988C13.0109 22.9974 13.0273 22.9621 13.0367 22.9245C13.4107 21.3264 14.1306 19.8729 15.0323 18.4901C15.6573 17.5333 16.2905 16.5811 16.8604 15.5946C17.6249 14.2745 17.5733 12.9315 16.7982 11.6239ZM13.0062 16.0411C11.619 16.0411 10.4945 14.967 10.4945 13.6423C10.4945 12.3176 11.619 11.2434 13.0062 11.2434C14.3933 11.2434 15.5178 12.3176 15.5178 13.6423C15.5178 14.967 14.3933 16.0411 13.0062 16.0411Z" stroke="#0A2F2F" stroke-width="0.75" stroke-miterlimit="10"/>
</svg>
