<svg width="26" height="25" viewBox="0 0 26 25" fill="none" xmlns="http://www.w3.org/2000/svg">
<path d="M23.5894 14.8244C22.2445 13.6819 20.7647 12.7673 19.0105 12.3333C18.3668 12.1738 17.7231 12.1055 17.0747 12.1294C17.4135 13.1842 17.301 14.2526 16.6912 15.3062C16.0932 16.3405 15.4284 17.3395 14.7741 18.3418C14.7331 18.4045 14.6932 18.4671 14.6533 18.5298C14.665 18.6551 14.6768 18.7804 14.6862 18.9068C14.6967 19.0515 14.7495 19.121 14.8914 19.1688C16.3653 19.6711 17.8497 19.7338 19.3494 19.2907C21.086 18.7792 22.5458 17.8213 23.8708 16.6458C24.1499 16.3986 24.4231 16.1446 24.7233 15.8724C24.3117 15.4908 23.9634 15.1422 23.5894 14.8244Z" stroke="#FCF6E9" stroke-width="0.75" stroke-miterlimit="10"/>
<path d="M8.4729 14.8138C8.04609 13.9504 8.00036 13.0016 8.24543 12.12C7.42698 12.0915 6.61674 12.2111 5.81354 12.4685C3.8155 13.1098 2.18564 14.2899 0.751606 15.7536C0.725809 15.7809 0.705876 15.8139 0.677734 15.8515C0.710566 15.8925 0.736362 15.9301 0.768021 15.9632C1.98983 17.2161 3.37696 18.2492 5.01503 18.9407C6.77269 19.6833 8.56084 19.7995 10.3853 19.1799C10.5518 19.1229 10.6433 19.0625 10.6527 18.8678C10.6597 18.7049 10.675 18.5408 10.6926 18.378C10.4944 18.0624 10.2892 17.7503 10.0781 17.4405C9.49889 16.5908 8.92434 15.7274 8.4729 14.8138Z" stroke="#FCF6E9" stroke-width="0.75" stroke-miterlimit="10"/>
<path d="M16.7245 11.5988C16.8295 11.7911 16.9215 11.9835 17.0017 12.1758C17.4652 12.1274 17.931 12.1237 18.4016 12.1622C19.3958 12.2441 20.3405 12.5295 21.2604 12.9377C21.2982 12.8893 21.3312 12.8546 21.356 12.8124C21.5081 12.5568 21.6732 12.3086 21.8077 12.043C22.8278 10.0166 23.138 7.83266 23.1026 5.57173C23.0991 5.37815 22.9918 5.38683 22.8679 5.38311C21.764 5.35209 20.6696 5.44764 19.5904 5.68838C18.0667 6.02714 16.6455 6.61285 15.4532 7.70484C14.8894 8.22106 14.4365 8.81297 14.0674 9.46569C15.1666 9.80197 16.1407 10.5316 16.7245 11.5988Z" stroke="#FCF6E9" stroke-width="0.75" stroke-miterlimit="10"/>
<path d="M11.183 9.48548C11.2239 9.47183 11.2648 9.46066 11.3058 9.44825C10.6601 8.31033 9.77469 7.38336 8.58982 6.71822C6.96048 5.8049 5.20247 5.45744 3.38248 5.38423C3.05263 5.37058 2.72279 5.38174 2.35434 5.38174C2.31457 8.09689 2.69121 10.6557 4.15562 12.9377C4.24686 12.903 4.31353 12.8819 4.37786 12.8534C5.344 12.4302 6.34524 12.1733 7.39208 12.1386C7.73597 12.1274 8.07868 12.1386 8.41788 12.1733C8.91499 10.9398 9.90335 9.9074 11.183 9.48548Z" stroke="#FCF6E9" stroke-width="0.75" stroke-miterlimit="10"/>
<path d="M13.3799 9.44207C14.0898 8.43075 15.0128 7.60052 16.178 6.97414C16.5391 6.77939 16.5379 6.77826 16.4327 6.39218C16.4265 6.3694 16.4204 6.34776 16.4131 6.32498C15.7717 4.17366 14.4142 2.45056 12.6944 0.943833C12.6785 0.930166 12.6503 0.930166 12.5659 0.90625C12.0395 1.45974 11.4703 2.00754 10.9636 2.60202C9.95129 3.78759 9.17769 5.09273 8.81047 6.58578C8.77253 6.74067 8.79823 6.81128 8.95246 6.891C10.1851 7.52079 11.1631 8.37495 11.9073 9.43295C12.3982 9.37032 12.8951 9.37487 13.3799 9.44207Z" stroke="#FCF6E9" stroke-width="0.75" stroke-miterlimit="10"/>
<path d="M16.476 11.5301C15.4558 9.809 13.1822 9.08798 11.2194 9.68029C8.88364 10.3854 7.55864 13.0371 8.59988 15.1466C9.0302 16.018 9.57896 16.8416 10.1301 17.6514C11.2487 19.294 12.2102 20.998 12.6522 23.005C12.6886 22.9036 12.705 22.8683 12.7144 22.8307C13.0884 21.2326 13.8084 19.7792 14.7101 18.3964C15.3351 17.4396 15.9682 16.4873 16.5381 15.5009C17.3026 14.1807 17.251 12.8378 16.476 11.5301ZM12.6839 15.9474C11.2968 15.9474 10.1723 14.8733 10.1723 13.5485C10.1723 12.2238 11.2968 11.1497 12.6839 11.1497C14.071 11.1497 15.1955 12.2238 15.1955 13.5485C15.1955 14.8733 14.071 15.9474 12.6839 15.9474Z" stroke="#FCF6E9" stroke-width="0.75" stroke-miterlimit="10"/>
</svg>
