<svg width="279" height="142" viewBox="0 0 279 142" fill="none" xmlns="http://www.w3.org/2000/svg">
<mask id="mask0" mask-type="alpha" maskUnits="userSpaceOnUse" x="0" y="0" width="279" height="142">
<rect width="278.471" height="141.252" rx="20" fill="white"/>
</mask>
<g mask="url(#mask0)">
<rect width="278.471" height="141.252" rx="20" fill="white"/>
<rect x="-18.4414" y="-33" width="325.395" height="63.4165" fill="#0A2F2F"/>
<path d="M107.633 17.5V10.3613H109.146V17.5H107.633ZM112.555 17.5977C111.913 17.5977 111.409 17.3486 111.041 16.8506C110.676 16.3525 110.494 15.6624 110.494 14.7803C110.494 13.8851 110.68 13.1885 111.051 12.6904C111.425 12.1891 111.939 11.9385 112.594 11.9385C113.281 11.9385 113.805 12.2054 114.166 12.7393H114.215C114.14 12.3324 114.103 11.9694 114.103 11.6504V9.90234H115.597V17.5H114.454L114.166 16.792H114.103C113.764 17.3291 113.248 17.5977 112.555 17.5977ZM113.077 16.4111C113.458 16.4111 113.736 16.3005 113.912 16.0791C114.091 15.8577 114.189 15.4818 114.205 14.9512V14.79C114.205 14.2041 114.114 13.7842 113.932 13.5303C113.753 13.2764 113.46 13.1494 113.053 13.1494C112.721 13.1494 112.462 13.291 112.276 13.5742C112.094 13.8542 112.003 14.2627 112.003 14.7998C112.003 15.3369 112.096 15.7406 112.281 16.0107C112.467 16.2777 112.732 16.4111 113.077 16.4111ZM119.415 12.998C119.099 12.998 118.852 13.099 118.673 13.3008C118.494 13.4993 118.391 13.7826 118.365 14.1504H120.455C120.449 13.7826 120.353 13.4993 120.167 13.3008C119.981 13.099 119.731 12.998 119.415 12.998ZM119.625 17.5977C118.746 17.5977 118.059 17.3551 117.564 16.8701C117.07 16.3851 116.822 15.6982 116.822 14.8096C116.822 13.8949 117.05 13.1885 117.506 12.6904C117.965 12.1891 118.598 11.9385 119.405 11.9385C120.177 11.9385 120.777 12.1582 121.207 12.5977C121.637 13.0371 121.852 13.6442 121.852 14.4189V15.1416H118.331C118.347 15.5648 118.473 15.8952 118.707 16.1328C118.941 16.3704 119.27 16.4893 119.693 16.4893C120.022 16.4893 120.333 16.4551 120.626 16.3867C120.919 16.3184 121.225 16.2093 121.544 16.0596V17.2119C121.284 17.3421 121.005 17.4382 120.709 17.5C120.413 17.5651 120.051 17.5977 119.625 17.5977ZM128.102 17.5H126.612V14.3115C126.612 13.9176 126.542 13.623 126.402 13.4277C126.262 13.2292 126.039 13.1299 125.733 13.1299C125.317 13.1299 125.016 13.2699 124.83 13.5498C124.645 13.8265 124.552 14.2871 124.552 14.9316V17.5H123.062V12.041H124.2L124.4 12.7393H124.483C124.649 12.4756 124.877 12.277 125.167 12.1436C125.46 12.0068 125.792 11.9385 126.163 11.9385C126.798 11.9385 127.28 12.111 127.608 12.4561C127.937 12.7979 128.102 13.2926 128.102 13.9404V17.5ZM131.935 16.4111C132.195 16.4111 132.507 16.3542 132.872 16.2402V17.3486C132.501 17.5146 132.045 17.5977 131.505 17.5977C130.909 17.5977 130.475 17.4479 130.201 17.1484C129.931 16.8457 129.796 16.3932 129.796 15.791V13.1592H129.083V12.5293L129.903 12.0312L130.333 10.8789H131.285V12.041H132.813V13.1592H131.285V15.791C131.285 16.0026 131.344 16.1589 131.461 16.2598C131.581 16.3607 131.739 16.4111 131.935 16.4111ZM133.917 10.6299C133.917 10.1449 134.187 9.90234 134.728 9.90234C135.268 9.90234 135.538 10.1449 135.538 10.6299C135.538 10.861 135.47 11.0417 135.333 11.1719C135.2 11.2988 134.998 11.3623 134.728 11.3623C134.187 11.3623 133.917 11.1182 133.917 10.6299ZM135.47 17.5H133.98V12.041H135.47V17.5ZM139.337 16.4111C139.597 16.4111 139.91 16.3542 140.274 16.2402V17.3486C139.903 17.5146 139.448 17.5977 138.907 17.5977C138.312 17.5977 137.877 17.4479 137.604 17.1484C137.333 16.8457 137.198 16.3932 137.198 15.791V13.1592H136.485V12.5293L137.306 12.0312L137.735 10.8789H138.688V12.041H140.216V13.1592H138.688V15.791C138.688 16.0026 138.746 16.1589 138.863 16.2598C138.984 16.3607 139.142 16.4111 139.337 16.4111ZM140.602 12.041H142.232L143.263 15.1123C143.351 15.3792 143.411 15.695 143.443 16.0596H143.473C143.508 15.7243 143.578 15.4085 143.683 15.1123L144.693 12.041H146.29L143.98 18.1982C143.769 18.7679 143.466 19.1943 143.072 19.4775C142.682 19.7607 142.224 19.9023 141.7 19.9023C141.443 19.9023 141.191 19.8747 140.943 19.8193V18.6377C141.122 18.68 141.318 18.7012 141.529 18.7012C141.793 18.7012 142.022 18.6198 142.218 18.457C142.416 18.2975 142.571 18.055 142.682 17.7295L142.77 17.4609L140.602 12.041ZM151.891 17.5977C150.191 17.5977 149.342 16.665 149.342 14.7998C149.342 13.8721 149.573 13.1641 150.035 12.6758C150.497 12.1842 151.16 11.9385 152.022 11.9385C152.654 11.9385 153.22 12.0622 153.722 12.3096L153.282 13.4619C153.048 13.3675 152.83 13.291 152.628 13.2324C152.426 13.1706 152.224 13.1396 152.022 13.1396C151.248 13.1396 150.86 13.6898 150.86 14.79C150.86 15.8577 151.248 16.3916 152.022 16.3916C152.309 16.3916 152.574 16.3542 152.818 16.2793C153.062 16.2012 153.307 16.0807 153.551 15.918V17.1924C153.31 17.3454 153.066 17.4512 152.818 17.5098C152.574 17.5684 152.265 17.5977 151.891 17.5977ZM158.287 17.5L157.999 16.7578H157.96C157.709 17.0736 157.451 17.2933 157.184 17.417C156.92 17.5374 156.575 17.5977 156.148 17.5977C155.624 17.5977 155.211 17.4479 154.908 17.1484C154.609 16.849 154.459 16.4225 154.459 15.8691C154.459 15.2897 154.661 14.8633 155.064 14.5898C155.471 14.3132 156.083 14.1602 156.9 14.1309L157.848 14.1016V13.8623C157.848 13.3089 157.564 13.0322 156.998 13.0322C156.562 13.0322 156.049 13.1641 155.46 13.4277L154.967 12.4219C155.595 12.0931 156.292 11.9287 157.057 11.9287C157.789 11.9287 158.351 12.0882 158.741 12.4072C159.132 12.7262 159.327 13.2113 159.327 13.8623V17.5H158.287ZM157.848 14.9707L157.271 14.9902C156.839 15.0033 156.516 15.0814 156.305 15.2246C156.093 15.3678 155.987 15.5859 155.987 15.8789C155.987 16.2988 156.228 16.5088 156.71 16.5088C157.055 16.5088 157.33 16.4095 157.535 16.2109C157.743 16.0124 157.848 15.7487 157.848 15.4199V14.9707ZM163.912 11.9385C164.114 11.9385 164.282 11.9531 164.415 11.9824L164.303 13.3789C164.182 13.3464 164.036 13.3301 163.863 13.3301C163.388 13.3301 163.017 13.4521 162.75 13.6963C162.486 13.9404 162.354 14.2822 162.354 14.7217V17.5H160.865V12.041H161.993L162.213 12.959H162.286C162.455 12.653 162.683 12.4072 162.97 12.2217C163.259 12.0329 163.574 11.9385 163.912 11.9385ZM167.135 17.5977C166.493 17.5977 165.989 17.3486 165.621 16.8506C165.257 16.3525 165.074 15.6624 165.074 14.7803C165.074 13.8851 165.26 13.1885 165.631 12.6904C166.005 12.1891 166.52 11.9385 167.174 11.9385C167.861 11.9385 168.385 12.2054 168.746 12.7393H168.795C168.72 12.3324 168.683 11.9694 168.683 11.6504V9.90234H170.177V17.5H169.034L168.746 16.792H168.683C168.344 17.3291 167.828 17.5977 167.135 17.5977ZM167.657 16.4111C168.038 16.4111 168.316 16.3005 168.492 16.0791C168.671 15.8577 168.769 15.4818 168.785 14.9512V14.79C168.785 14.2041 168.694 13.7842 168.512 13.5303C168.333 13.2764 168.04 13.1494 167.633 13.1494C167.301 13.1494 167.042 13.291 166.856 13.5742C166.674 13.8542 166.583 14.2627 166.583 14.7998C166.583 15.3369 166.676 15.7406 166.861 16.0107C167.047 16.2777 167.312 16.4111 167.657 16.4111Z" fill="white"/>
<path fill-rule="evenodd" clip-rule="evenodd" d="M58.123 81.5985C55.0716 85.5743 50.2712 88.1374 44.8721 88.1374C39.4439 88.1374 34.6208 85.5466 31.572 81.5342C26.5966 86.2472 23.4023 93.5559 23.4023 101.761C23.4023 115.976 32.9885 116.407 44.8137 116.407C56.6389 116.407 66.2251 115.976 66.2251 101.761C66.2251 93.5931 63.0597 86.3135 58.123 81.5985Z" fill="#0A2F2F"/>
<circle cx="44.8655" cy="68.2879" r="16.6936" fill="#0A2F2F"/>
<path d="M154.412 63H152.684L151.023 60.2998L149.363 63H147.742L150.11 59.3184L147.894 55.8613H149.563L151.102 58.4297L152.61 55.8613H154.241L152 59.4014L154.412 63ZM161.082 63H159.354L157.693 60.2998L156.033 63H154.412L156.78 59.3184L154.563 55.8613H156.233L157.771 58.4297L159.28 55.8613H160.911L158.67 59.4014L161.082 63ZM161.653 62.3018C161.653 62.0283 161.727 61.8216 161.873 61.6816C162.02 61.5417 162.233 61.4717 162.513 61.4717C162.783 61.4717 162.991 61.5433 163.138 61.6865C163.287 61.8298 163.362 62.0348 163.362 62.3018C163.362 62.5589 163.287 62.7624 163.138 62.9121C162.988 63.0586 162.78 63.1318 162.513 63.1318C162.239 63.1318 162.028 63.0602 161.878 62.917C161.728 62.7705 161.653 62.5654 161.653 62.3018ZM170.604 63H168.875L167.215 60.2998L165.555 63H163.934L166.302 59.3184L164.085 55.8613H165.755L167.293 58.4297L168.802 55.8613H170.433L168.191 59.4014L170.604 63ZM177.273 63H175.545L173.885 60.2998L172.225 63H170.604L172.972 59.3184L170.755 55.8613H172.425L173.963 58.4297L175.472 55.8613H177.103L174.861 59.4014L177.273 63ZM177.845 62.3018C177.845 62.0283 177.918 61.8216 178.064 61.6816C178.211 61.5417 178.424 61.4717 178.704 61.4717C178.974 61.4717 179.183 61.5433 179.329 61.6865C179.479 61.8298 179.554 62.0348 179.554 62.3018C179.554 62.5589 179.479 62.7624 179.329 62.9121C179.179 63.0586 178.971 63.1318 178.704 63.1318C178.431 63.1318 178.219 63.0602 178.069 62.917C177.92 62.7705 177.845 62.5654 177.845 62.3018ZM186.795 63H185.066L183.406 60.2998L181.746 63H180.125L182.493 59.3184L180.276 55.8613H181.946L183.484 58.4297L184.993 55.8613H186.624L184.383 59.4014L186.795 63ZM193.465 63H191.736L190.076 60.2998L188.416 63H186.795L189.163 59.3184L186.946 55.8613H188.616L190.154 58.4297L191.663 55.8613H193.294L191.053 59.4014L193.465 63ZM193.763 60.9297V59.709H196.385V60.9297H193.763ZM203.357 63H201.629L199.969 60.2998L198.309 63H196.688L199.056 59.3184L196.839 55.8613H198.509L200.047 58.4297L201.556 55.8613H203.187L200.945 59.4014L203.357 63ZM210.027 63H208.299L206.639 60.2998L204.979 63H203.357L205.726 59.3184L203.509 55.8613H205.179L206.717 58.4297L208.226 55.8613H209.856L207.615 59.4014L210.027 63ZM216.697 63H214.969L213.309 60.2998L211.648 63H210.027L212.396 59.3184L210.179 55.8613H211.849L213.387 58.4297L214.896 55.8613H216.526L214.285 59.4014L216.697 63ZM217.269 62.3018C217.269 62.0283 217.342 61.8216 217.488 61.6816C217.635 61.5417 217.848 61.4717 218.128 61.4717C218.398 61.4717 218.606 61.5433 218.753 61.6865C218.903 61.8298 218.978 62.0348 218.978 62.3018C218.978 62.5589 218.903 62.7624 218.753 62.9121C218.603 63.0586 218.395 63.1318 218.128 63.1318C217.854 63.1318 217.643 63.0602 217.493 62.917C217.343 62.7705 217.269 62.5654 217.269 62.3018ZM226.219 63H224.49L222.83 60.2998L221.17 63H219.549L221.917 59.3184L219.7 55.8613H221.37L222.908 58.4297L224.417 55.8613H226.048L223.807 59.4014L226.219 63ZM232.889 63H231.16L229.5 60.2998L227.84 63H226.219L228.587 59.3184L226.37 55.8613H228.04L229.578 58.4297L231.087 55.8613H232.718L230.477 59.4014L232.889 63Z" fill="black"/>
</g>
</svg>
