<svg width="9" height="15" viewBox="0 0 9 15" fill="none" xmlns="http://www.w3.org/2000/svg">
<path d="M2.42969 9.7373V9.08691C2.42969 8.52441 2.5498 8.03516 2.79004 7.61914C3.03027 7.20312 3.46973 6.76074 4.1084 6.29199C4.72363 5.85254 5.12793 5.49512 5.32129 5.21973C5.52051 4.94434 5.62012 4.63672 5.62012 4.29688C5.62012 3.91602 5.47949 3.62598 5.19824 3.42676C4.91699 3.22754 4.52441 3.12793 4.02051 3.12793C3.1416 3.12793 2.13965 3.41504 1.01465 3.98926L0.0566406 2.06445C1.36328 1.33203 2.74902 0.96582 4.21387 0.96582C5.4209 0.96582 6.37891 1.25586 7.08789 1.83594C7.80273 2.41602 8.16016 3.18945 8.16016 4.15625C8.16016 4.80078 8.01367 5.35742 7.7207 5.82617C7.42773 6.29492 6.87109 6.82227 6.05078 7.4082C5.48828 7.82422 5.13086 8.14062 4.97852 8.35742C4.83203 8.57422 4.75879 8.8584 4.75879 9.20996V9.7373H2.42969ZM2.14844 12.7432C2.14844 12.251 2.28027 11.8789 2.54395 11.627C2.80762 11.375 3.19141 11.249 3.69531 11.249C4.18164 11.249 4.55664 11.3779 4.82031 11.6357C5.08984 11.8936 5.22461 12.2627 5.22461 12.7432C5.22461 13.2061 5.08984 13.5723 4.82031 13.8418C4.55078 14.1055 4.17578 14.2373 3.69531 14.2373C3.20312 14.2373 2.82227 14.1084 2.55273 13.8506C2.2832 13.5869 2.14844 13.2178 2.14844 12.7432Z" fill="#104CCF"/>
</svg>
