<svg width="167" height="167" viewBox="0 0 167 167" fill="none" xmlns="http://www.w3.org/2000/svg">
<path fill-rule="evenodd" clip-rule="evenodd" d="M88.3765 10.5725C86.5984 10.4413 84.8161 10.3755 83.0332 10.3754V0C85.0724 0.000994249 87.1108 0.0771322 89.1443 0.228259L88.3765 10.5725ZM109.169 15.2415C105.843 13.9581 102.427 12.9212 98.9491 12.1392L101.221 2.01283C105.195 2.90511 109.107 4.08791 112.904 5.56121L109.169 15.2415ZM123.383 22.608C121.9 21.6187 120.38 20.6843 118.828 19.8066L123.943 10.78C127.491 12.7901 130.886 15.0581 134.101 17.5656L127.72 25.7517C126.313 24.6543 124.867 23.6092 123.383 22.6184V22.608ZM142.412 41.18C140.359 38.2642 138.095 35.5038 135.636 32.9211L143.148 25.7621C145.95 28.7191 148.543 31.8836 150.899 35.2037L142.412 41.18ZM150.131 55.2075C149.45 53.5626 148.709 51.9429 147.911 50.3518L157.176 45.6829C159.008 49.3255 160.569 53.0986 161.845 56.9713L151.988 60.2188C151.431 58.5262 150.811 56.8547 150.131 55.2075ZM155.63 81.2186C155.546 77.653 155.199 74.0984 154.592 70.5838L164.812 68.82C165.507 72.8249 165.912 76.8921 166.016 80.9592L155.64 81.2186H155.63ZM154.271 97.176C154.613 95.4122 154.893 93.6587 155.111 91.8845L165.414 93.1607C164.916 97.2087 164.118 101.214 163.028 105.144L153.026 102.374C153.503 100.662 153.918 98.9294 154.271 97.176ZM144.393 121.859C146.302 118.85 147.983 115.696 149.436 112.438L158.919 116.64C157.259 120.375 155.339 123.965 153.161 127.41L144.393 121.859ZM134.391 134.361C135.657 133.096 136.871 131.788 138.023 130.44L145.887 137.215C144.556 138.759 143.168 140.254 141.727 141.697L134.391 134.361Z" fill="#104CCF"/>
<path fill-rule="evenodd" clip-rule="evenodd" d="M83.0356 10.3754C71.0923 10.3763 59.3335 13.3225 48.8007 18.9531C38.2679 24.5838 29.2863 32.7251 22.6514 42.6559C16.0164 52.5866 11.9329 64.0005 10.7626 75.8863C9.59225 87.7722 11.3712 99.7632 15.9418 110.797C20.5124 121.831 27.7337 131.568 36.966 139.145C46.1983 146.722 57.1566 151.905 68.8704 154.235C80.5842 156.565 92.6919 155.971 104.121 152.504C115.55 149.038 125.948 142.806 134.394 134.361L141.729 141.697C132.077 151.354 120.193 158.481 107.128 162.448C94.0629 166.414 80.2215 167.096 66.8299 164.434C53.4383 161.773 40.91 155.849 30.355 147.188C19.8 138.527 11.5443 127.396 6.31922 114.782C1.09416 102.168 -0.938869 88.4594 0.400261 74.8717C1.73939 61.2839 6.40933 48.2363 13.9963 36.8847C21.5833 25.5332 31.8531 16.2283 43.8957 9.79441C55.9384 3.36054 69.382 -0.00361824 83.0356 2.92024e-06V10.3754Z" fill="#104CCF"/>
<path fill-rule="evenodd" clip-rule="evenodd" d="M77.8459 31.1263C79.2218 31.1263 80.5413 31.6729 81.5142 32.6458C82.487 33.6187 83.0336 34.9382 83.0336 36.314V90.3699L116.733 109.627C117.893 110.326 118.733 111.452 119.074 112.763C119.415 114.074 119.229 115.466 118.557 116.642C117.885 117.819 116.78 118.685 115.477 119.057C114.175 119.429 112.778 119.277 111.587 118.632L75.2728 97.8817C74.4788 97.4281 73.8188 96.7728 73.3596 95.982C72.9005 95.1912 72.6585 94.2931 72.6582 93.3787V36.314C72.6582 34.9382 73.2048 33.6187 74.1776 32.6458C75.1505 31.6729 76.47 31.1263 77.8459 31.1263Z" fill="#104CCF"/>
</svg>
