<svg width="32" height="33" viewBox="0 0 32 33" fill="none" xmlns="http://www.w3.org/2000/svg">
<path fill-rule="evenodd" clip-rule="evenodd" d="M32 16.5C32 20.8761 30.3143 25.0729 27.3137 28.1673C24.3131 31.2616 20.2435 33 16 33C11.7565 33 7.68687 31.2616 4.68629 28.1673C1.68571 25.0729 0 20.8761 0 16.5C0 12.1239 1.68571 7.92709 4.68629 4.83274C7.68687 1.73839 11.7565 0 16 0C20.2435 0 24.3131 1.73839 27.3137 4.83274C30.3143 7.92709 32 12.1239 32 16.5ZM16 7.21875C16 6.94525 15.8946 6.68294 15.7071 6.48955C15.5196 6.29615 15.2652 6.1875 15 6.1875C14.7348 6.1875 14.4804 6.29615 14.2929 6.48955C14.1054 6.68294 14 6.94525 14 7.21875V18.5625C14.0001 18.7443 14.0467 18.9228 14.1352 19.08C14.2237 19.2372 14.3509 19.3675 14.504 19.4576L21.504 23.5826C21.7337 23.7107 22.0029 23.7409 22.254 23.667C22.5051 23.5931 22.7181 23.4208 22.8477 23.187C22.9772 22.9532 23.013 22.6765 22.9473 22.4158C22.8815 22.1552 22.7196 21.9315 22.496 21.7924L16 17.9644V7.21875Z" fill="#668AD8"/>
</svg>
