<svg width="33" height="36" viewBox="0 0 33 36" fill="none" xmlns="http://www.w3.org/2000/svg">
<path d="M0 19.8C0 24.0965 1.73839 28.217 4.83274 31.2551C7.92709 34.2932 12.1239 36 16.5 36C16.5 31.7035 14.7616 27.583 11.6673 24.5449C8.57291 21.5068 4.37607 19.8 0 19.8ZM16.5 36C20.8761 36 25.0729 34.2932 28.1673 31.2551C31.2616 28.217 33 24.0965 33 19.8C28.6239 19.8 24.4271 21.5068 21.3327 24.5449C18.2384 27.583 16.5 31.7035 16.5 36ZM27.5 1.8V10.8C27.5 13.6643 26.3411 16.4114 24.2782 18.4368C22.2153 20.4621 19.4174 21.6 16.5 21.6C13.5826 21.6 10.7847 20.4621 8.72183 18.4368C6.65893 16.4114 5.5 13.6643 5.5 10.8V1.8C6.85667 1.8 8.195 2.016 9.46 2.502C10.4683 2.916 11.3667 3.528 12.1183 4.302L16.5 0L20.8817 4.302C21.6333 3.528 22.5317 2.916 23.54 2.502C24.8037 2.02687 26.1469 1.78875 27.5 1.8Z" fill="#D54283"/>
</svg>
