<svg width="21" height="13" viewBox="0 0 21 13" fill="none" xmlns="http://www.w3.org/2000/svg">
<path d="M14.5098 6.23553C15.8898 6.23553 16.9998 5.31187 16.9998 4.17379C16.9998 3.03571 15.8898 2.11204 14.5098 2.11204C13.1298 2.11204 12.0098 3.03571 12.0098 4.17379C12.0098 5.31187 13.1298 6.23553 14.5098 6.23553ZM7.00977 5.41084C8.66977 5.41084 9.99977 4.30574 9.99977 2.93674C9.99977 1.56774 8.66977 0.462646 7.00977 0.462646C5.34977 0.462646 4.00977 1.56774 4.00977 2.93674C4.00977 4.30574 5.34977 5.41084 7.00977 5.41084ZM14.5098 7.88493C12.6798 7.88493 9.00977 8.64365 9.00977 10.1529V12.0084H20.0098V10.1529C20.0098 8.64365 16.3398 7.88493 14.5098 7.88493ZM7.00977 7.06023C4.67977 7.06023 0.00976562 8.02513 0.00976562 9.94668V12.0084H7.00977V10.1529C7.00977 9.45186 7.33977 8.22306 9.37977 7.29115C8.50977 7.1427 7.66977 7.06023 7.00977 7.06023Z" fill="white"/>
</svg>
