<svg width="133" height="93" viewBox="0 0 133 93" fill="none" xmlns="http://www.w3.org/2000/svg">
<path d="M68.3112 45.7373L89.6545 69.0216L110.917 92.3059H68.3112H25.7051L47.0484 69.0216L68.3112 45.7373Z" stroke="#0A2F2F" stroke-miterlimit="10"/>
<path d="M68.0703 45.7375L69.6811 2.55566" stroke="#0A2F2F" stroke-miterlimit="10" stroke-linecap="round"/>
<path d="M68.8771 23.2155C68.7966 24.9089 67.0247 25.925 65.5749 24.9936L57.5209 19.5747L49.4668 14.1558C48.0976 13.2244 48.1781 11.1077 49.6279 10.261L58.1652 5.6041L66.7025 0.947241C68.1522 0.185209 69.8436 1.28592 69.7631 3.064L69.2798 13.1398L68.8771 23.2155Z" stroke="#0A2F2F" stroke-miterlimit="10" stroke-linecap="round"/>
<path d="M38.1916 52.5107L56.3938 72.4082L74.5961 92.3057H38.1916H1.78711L19.9893 72.4082L38.1916 52.5107Z" stroke="#0A2F2F" stroke-miterlimit="10"/>
<path d="M94.8107 52.5107L113.013 72.4082L131.215 92.3057H94.8107H58.4062L76.6085 72.4082L94.8107 52.5107Z" stroke="#0A2F2F" stroke-miterlimit="10"/>
</svg>
