<svg width="23" height="23" viewBox="0 0 23 23" fill="none" xmlns="http://www.w3.org/2000/svg">
<path d="M11.5 0C5.17499 0 0 5.18424 0 11.5693C0 17.3424 4.20899 22.134 9.70599 23V14.9177H6.78499V11.5693H9.70599V9.01757C9.70599 6.11948 11.4195 4.52611 14.053 4.52611C15.3065 4.52611 16.6175 4.74548 16.6175 4.74548V7.59739H15.1685C13.7425 7.59739 13.294 8.48645 13.294 9.3986V11.5693H16.491L15.9735 14.9177H13.294V23C16.0039 22.5703 18.4715 21.1821 20.2514 19.0859C22.0313 16.9898 23.0061 14.3238 23 11.5693C23 5.18424 17.825 0 11.5 0V0Z" fill="#D54283"/>
</svg>
