<svg width="43" height="52" viewBox="0 0 43 52" fill="none" xmlns="http://www.w3.org/2000/svg">
<path d="M2.86667 0C3.62695 0 4.3561 0.304364 4.89371 0.846136C5.43131 1.38791 5.73333 2.12271 5.73333 2.88889V5.43111C8.772 4.16 12.9 2.88889 17.2 2.88889C25.8 2.88889 25.8 8.66667 31.5333 8.66667C40.1333 8.66667 43 2.88889 43 2.88889V26C43 26 40.1333 31.7778 31.5333 31.7778C22.9333 31.7778 22.9333 26 17.2 26C8.6 26 5.73333 31.7778 5.73333 31.7778V52H0V2.88889C0 2.12271 0.302023 1.38791 0.839628 0.846136C1.37723 0.304364 2.10638 0 2.86667 0Z" fill="#D54283"/>
</svg>
