<svg width="44" height="64" viewBox="0 0 44 64" fill="none" xmlns="http://www.w3.org/2000/svg">
<g filter="url(#filter0_d)">
<path d="M37.1928 9.01786C33.1522 2.11036 24.1511 -0.78278 16.385 1.5948C7.1348 4.42287 1.88964 15.0694 6.01156 23.5336C7.71421 27.0324 9.88444 30.336 12.0699 33.5895C16.4968 40.1817 20.3036 47.0241 22.052 55.0779C22.1943 54.6724 22.2604 54.5273 22.296 54.3771C23.775 47.9652 26.6263 42.1288 30.1993 36.5778C32.6694 32.7386 35.1801 28.9145 37.4368 24.9552C40.4609 19.6544 40.2627 14.2636 37.1928 9.01786ZM22.1791 26.7471C16.6849 26.7471 12.2326 22.4374 12.2326 17.1217C12.2326 11.8059 16.6849 7.49621 22.1791 7.49621C27.6733 7.49621 32.1255 11.8059 32.1255 17.1217C32.1255 22.4374 27.6733 26.7471 22.1791 26.7471Z" fill="#D54283"/>
</g>
<defs>
<filter id="filter0_d" x="0.587891" y="0.775391" width="43.0151" height="62.3025" filterUnits="userSpaceOnUse" color-interpolation-filters="sRGB">
<feFlood flood-opacity="0" result="BackgroundImageFix"/>
<feColorMatrix in="SourceAlpha" type="matrix" values="0 0 0 0 0 0 0 0 0 0 0 0 0 0 0 0 0 0 127 0"/>
<feOffset dy="4"/>
<feGaussianBlur stdDeviation="2"/>
<feColorMatrix type="matrix" values="0 0 0 0 0 0 0 0 0 0 0 0 0 0 0 0 0 0 0.25 0"/>
<feBlend mode="normal" in2="BackgroundImageFix" result="effect1_dropShadow"/>
<feBlend mode="normal" in="SourceGraphic" in2="effect1_dropShadow" result="shape"/>
</filter>
</defs>
</svg>
