<svg width="133" height="106" viewBox="0 0 133 106" fill="none" xmlns="http://www.w3.org/2000/svg">
<path fill-rule="evenodd" clip-rule="evenodd" d="M65.6212 0C76.7274 9.44411 94.1668 33.6334 75.0748 54.838C55.9828 76.0425 50.1946 56.1899 49.687 43.6131C46.3419 37.4397 44.8455 20.0743 65.6212 0ZM65.1228 16.7304C63.8664 21.4184 62.1075 33.1179 65.1228 42.4123C65.8556 37.9281 66.8817 26.514 65.1228 16.7304Z" fill="#8ACAA3"/>
<g filter="url(#filter0_d)">
<path fill-rule="evenodd" clip-rule="evenodd" d="M17.0663 21.3164C16.0193 35.635 21.1495 64.7615 50.0461 66.7182C78.9426 68.6749 68.6822 50.6161 59.94 41.3421C57.846 34.6669 46.3398 21.3164 17.0663 21.3164ZM48.9744 55.605C48.5776 51.7369 44.7185 42.2867 32.4575 35.4304C35.9214 38.8632 44.0742 47.7041 48.9744 55.605Z" fill="#8ACAA3"/>
</g>
<g filter="url(#filter1_d)">
<path fill-rule="evenodd" clip-rule="evenodd" d="M114.869 21.0898C115.916 35.4085 110.786 64.5349 81.8891 66.4916C52.9925 68.4484 63.2529 50.3895 71.9952 41.1156C74.0892 34.4403 85.5954 21.0898 114.869 21.0898ZM80.7837 53.47C81.6349 49.672 86.5846 40.7164 99.5742 35.2779C95.7278 38.3003 86.5848 46.17 80.7837 53.47Z" fill="#8ACAA3"/>
</g>
<path d="M42.0802 42.7513C45.2277 45.942 47.6736 49.927 47.9039 54.5411C46.0434 51.6344 43.4264 47.7575 40.7175 44.1592C39.1208 42.0381 37.4875 40.0077 35.9551 38.3277C35.6322 37.9738 35.3125 37.6339 34.9973 37.3109C37.3111 38.6668 39.8607 40.5013 42.0802 42.7513Z" fill="#EEE8DB" stroke="#EEE8DB"/>
<path d="M89.3482 41.2738C85.8442 44.0884 82.9422 47.7702 82.164 52.3252C84.3567 49.6476 87.4154 46.0923 90.5321 42.8238C92.3699 40.8966 94.233 39.0636 95.9545 37.5673C96.3148 37.2541 96.6704 36.9543 97.0196 36.6706C94.5628 37.757 91.8167 39.2911 89.3482 41.2738Z" fill="#EEE8DB" stroke="#EEE8DB"/>
<g filter="url(#filter2_d)">
<path fill-rule="evenodd" clip-rule="evenodd" d="M75.3897 52.4363C81.8613 48.9916 99.5469 47.7979 118.516 70.5804C98.4222 85.4628 82.3603 91.2978 66.4611 79.3587C53.7418 69.8075 67.1138 57.4307 75.3897 52.4363ZM73.5286 70.2026C76.8235 68.006 86.7348 64.7904 100.021 69.5009C95.0924 69.1339 82.8935 68.7603 73.5286 70.2026Z" fill="#8ACAA3"/>
</g>
<g filter="url(#filter3_d)">
<path fill-rule="evenodd" clip-rule="evenodd" d="M56.6672 53.5602C50.5511 49.547 33.055 46.7644 12 67.7392C30.592 84.3688 46.0297 91.6264 62.9964 81.1717C76.5697 72.8079 64.4325 59.2791 56.6672 53.5602ZM57.6029 69.8005C54.2289 67.7209 44.205 64.855 31.1016 70.0284C36.0136 69.4888 48.1908 68.6876 57.6029 69.8005Z" fill="#8ACAA3"/>
</g>
<path d="M42.3394 67.3454C46.8424 66.8095 51.577 67.2923 55.5045 69.8644C52.0017 69.57 47.2551 69.283 42.6818 69.2338C39.9809 69.2047 37.3332 69.2585 35.0341 69.4438C34.5678 69.4814 34.1141 69.5246 33.6758 69.5738C36.1676 68.5948 39.1827 67.7211 42.3394 67.3454Z" fill="#EEE8DB" stroke="#EEE8DB"/>
<path d="M89.7099 66.7341C85.2069 66.1982 80.4723 66.6809 76.5448 69.2531C80.0476 68.9586 84.7942 68.6717 89.3676 68.6225C92.0684 68.5934 94.7162 68.6471 97.0153 68.8325C97.4815 68.8701 97.9352 68.9132 98.3736 68.9625C95.8817 67.9835 92.8667 67.1097 89.7099 66.7341Z" fill="#EEE8DB" stroke="#EEE8DB"/>
<path d="M65.2615 18.9979C66.8432 27.7527 66.0101 36.7185 65.1298 41.5507C64.0976 38.055 63.8803 33.6337 64.077 29.32C64.2511 25.5034 64.7469 21.813 65.2615 18.9979Z" fill="#EFE9DC" stroke="#EFE9DC"/>
<g filter="url(#filter4_d)">
<path d="M80.1614 48.3852C75.8844 41.0737 66.3569 38.0113 58.1366 40.528C48.3454 43.5215 42.7935 54.7907 47.1565 63.7499C48.9587 67.4533 51.2559 70.9501 53.5692 74.3939C58.2549 81.3716 62.2844 88.6142 64.135 97.139C64.2857 96.7099 64.3556 96.5562 64.3933 96.3973C65.9588 89.6103 68.9768 83.4326 72.7588 77.5569C75.3734 73.4932 78.031 69.4454 80.4196 65.2546C83.6206 59.6438 83.4107 53.9377 80.1614 48.3852ZM64.2695 67.1513C58.454 67.1513 53.7413 62.5896 53.7413 56.9629C53.7413 51.3363 58.454 46.7745 64.2695 46.7745C70.0851 46.7745 74.7977 51.3363 74.7977 56.9629C74.7977 62.5896 70.0851 67.1513 64.2695 67.1513Z" fill="#425A96"/>
</g>
<defs>
<filter id="filter0_d" x="12.9423" y="17.3164" width="60.1656" height="53.5488" filterUnits="userSpaceOnUse" color-interpolation-filters="sRGB">
<feFlood flood-opacity="0" result="BackgroundImageFix"/>
<feColorMatrix in="SourceAlpha" type="matrix" values="0 0 0 0 0 0 0 0 0 0 0 0 0 0 0 0 0 0 127 0"/>
<feOffset/>
<feGaussianBlur stdDeviation="2"/>
<feColorMatrix type="matrix" values="0 0 0 0 0 0 0 0 0 0 0 0 0 0 0 0 0 0 0.25 0"/>
<feBlend mode="normal" in2="BackgroundImageFix" result="effect1_dropShadow"/>
<feBlend mode="normal" in="SourceGraphic" in2="effect1_dropShadow" result="shape"/>
</filter>
<filter id="filter1_d" x="58.8273" y="17.0898" width="60.1656" height="53.5488" filterUnits="userSpaceOnUse" color-interpolation-filters="sRGB">
<feFlood flood-opacity="0" result="BackgroundImageFix"/>
<feColorMatrix in="SourceAlpha" type="matrix" values="0 0 0 0 0 0 0 0 0 0 0 0 0 0 0 0 0 0 127 0"/>
<feOffset/>
<feGaussianBlur stdDeviation="2"/>
<feColorMatrix type="matrix" values="0 0 0 0 0 0 0 0 0 0 0 0 0 0 0 0 0 0 0.25 0"/>
<feBlend mode="normal" in2="BackgroundImageFix" result="effect1_dropShadow"/>
<feBlend mode="normal" in="SourceGraphic" in2="effect1_dropShadow" result="shape"/>
</filter>
<filter id="filter2_d" x="47.2156" y="40.5288" width="85.3006" height="63.2245" filterUnits="userSpaceOnUse" color-interpolation-filters="sRGB">
<feFlood flood-opacity="0" result="BackgroundImageFix"/>
<feColorMatrix in="SourceAlpha" type="matrix" values="0 0 0 0 0 0 0 0 0 0 0 0 0 0 0 0 0 0 127 0"/>
<feOffset dy="4"/>
<feGaussianBlur stdDeviation="7"/>
<feColorMatrix type="matrix" values="0 0 0 0 0 0 0 0 0 0 0 0 0 0 0 0 0 0 0.25 0"/>
<feBlend mode="normal" in2="BackgroundImageFix" result="effect1_dropShadow"/>
<feBlend mode="normal" in="SourceGraphic" in2="effect1_dropShadow" result="shape"/>
</filter>
<filter id="filter3_d" x="0" y="42.752" width="81.1161" height="59.2884" filterUnits="userSpaceOnUse" color-interpolation-filters="sRGB">
<feFlood flood-opacity="0" result="BackgroundImageFix"/>
<feColorMatrix in="SourceAlpha" type="matrix" values="0 0 0 0 0 0 0 0 0 0 0 0 0 0 0 0 0 0 127 0"/>
<feOffset dy="4"/>
<feGaussianBlur stdDeviation="6"/>
<feColorMatrix type="matrix" values="0 0 0 0 0 0 0 0 0 0 0 0 0 0 0 0 0 0 0.16 0"/>
<feBlend mode="normal" in2="BackgroundImageFix" result="effect1_dropShadow"/>
<feBlend mode="normal" in="SourceGraphic" in2="effect1_dropShadow" result="shape"/>
</filter>
<filter id="filter4_d" x="41.6495" y="39.6606" width="45.063" height="65.4784" filterUnits="userSpaceOnUse" color-interpolation-filters="sRGB">
<feFlood flood-opacity="0" result="BackgroundImageFix"/>
<feColorMatrix in="SourceAlpha" type="matrix" values="0 0 0 0 0 0 0 0 0 0 0 0 0 0 0 0 0 0 127 0"/>
<feOffset dy="4"/>
<feGaussianBlur stdDeviation="2"/>
<feColorMatrix type="matrix" values="0 0 0 0 0 0 0 0 0 0 0 0 0 0 0 0 0 0 0.25 0"/>
<feBlend mode="normal" in2="BackgroundImageFix" result="effect1_dropShadow"/>
<feBlend mode="normal" in="SourceGraphic" in2="effect1_dropShadow" result="shape"/>
</filter>
</defs>
</svg>
