<svg width="180" height="159" viewBox="0 0 180 159" fill="none" xmlns="http://www.w3.org/2000/svg">
<rect width="180" height="159" fill="#C4C4C4"/>
<path d="M70.64 66.36C70.64 62.8933 72.2133 59.9867 75.36 57.64C78.5067 55.2933 82.9867 54.12 88.8 54.12C94.6667 54.12 99.1733 55.24 102.32 57.48C105.52 59.72 107.12 63.0267 107.12 67.4C107.12 70.28 106.4 72.84 104.96 75.08C103.573 77.2667 101.627 79.5067 99.12 81.8L87.04 92.52V97.16H85.04V80.36C85.04 79.4533 85.3333 78.7067 85.92 78.12L90.88 73.08C92.4267 71.5333 93.4933 70.0933 94.08 68.76C94.6667 67.3733 94.96 65.5867 94.96 63.4C94.96 58.2267 92.56 55.64 87.76 55.64C85.4667 55.64 83.7867 56.2533 82.72 57.48C81.6533 58.7067 81.12 59.88 81.12 61C81.12 62.12 81.28 63.1067 81.6 63.96H84.16C84.5867 65.08 84.8 66.44 84.8 68.04C84.8 69.5867 84.1333 70.9467 82.8 72.12C81.4667 73.24 79.7067 73.8 77.52 73.8C75.3333 73.8 73.6267 73.1067 72.4 71.72C71.2267 70.28 70.64 68.4933 70.64 66.36ZM85.84 111.8C83.8667 111.8 82.3733 111.24 81.36 110.12C80.4 108.947 79.92 107.507 79.92 105.8C79.92 104.04 80.4533 102.6 81.52 101.48C82.5867 100.307 84.0533 99.72 85.92 99.72C87.7867 99.72 89.28 100.227 90.4 101.24C91.52 102.2 92.08 103.64 92.08 105.56C92.08 107.48 91.5467 109 90.48 110.12C89.4133 111.24 87.8667 111.8 85.84 111.8Z" fill="#0A824B"/>
</svg>
